<svg xmlns="http://www.w3.org/2000/svg" viewBox="0 0 64 64">
  <defs>
    <radialGradient id="g1" cx="15%" cy="85%" r="70%">
      <stop offset="0%" stop-color="#5B2D9E" stop-opacity="0.6"/>
      <stop offset="100%" stop-color="transparent" stop-opacity="0"/>
    </radialGradient>
    <radialGradient id="g2" cx="85%" cy="30%" r="65%">
      <stop offset="0%" stop-color="#2563EB" stop-opacity="0.5"/>
      <stop offset="100%" stop-color="transparent" stop-opacity="0"/>
    </radialGradient>
    <radialGradient id="g3" cx="50%" cy="90%" r="60%">
      <stop offset="0%" stop-color="#C9A84C" stop-opacity="0.35"/>
      <stop offset="100%" stop-color="transparent" stop-opacity="0"/>
    </radialGradient>
  </defs>
  <rect width="64" height="64" rx="8" fill="#2F3136"/>
  <rect width="64" height="64" rx="8" fill="url(#g1)"/>
  <rect width="64" height="64" rx="8" fill="url(#g2)"/>
  <rect width="64" height="64" rx="8" fill="url(#g3)"/>
  <!-- Big Q filling the space - leg visible at bottom right -->
  <g transform="translate(1, 59) scale(0.072, -0.072)">
    <path fill="#E07020" d="M646 0V36L774 123V81H868V0ZM174 0Q141 0 113.5 16Q86 32 70 59.5Q54 87 54 120V600Q54 633 70 660.5Q86 688 113.5 704Q141 720 174 720H654Q687 720 714.5 704Q742 688 758 660.5Q774 633 774 600V120Q774 87 758 59.5Q742 32 714.5 16Q687 0 654 0ZM174 81H654Q670 81 681.5 92.5Q693 104 693 120V600Q693 616 681.5 627.5Q670 639 654 639H174Q158 639 146.5 627.5Q135 616 135 600V120Q135 104 146.5 92.5Q158 81 174 81Z"/>
  </g>
</svg>
